<svg width="342" height="90" viewBox="0 0 342 90" fill="none" xmlns="http://www.w3.org/2000/svg">
    <path d="M16.0673 7.28511C18.9121 7.28511 21.1347 9.59508 21.1347 12.3493V77.7392C21.1347 80.5822 18.8232 82.8034 16.0673 82.8034C13.2225 82.8034 11 80.4934 11 77.7392V12.3493C11 9.50624 13.2225 7.28511 16.0673 7.28511Z" fill="white"/>
    <path d="M39.4481 12.3493C39.4481 9.50624 41.7596 7.28511 44.5155 7.28511H70.2077C87.2766 7.28511 95.811 14.4816 95.811 28.9633C95.811 44.7777 86.921 52.6849 69.2298 52.6849H54.6501C51.8053 52.6849 49.5828 54.9949 49.5828 57.7491V77.6504C49.5828 80.4934 47.2714 82.7145 44.5155 82.7145C41.6707 82.7145 39.4481 80.4046 39.4481 77.6504V12.3493ZM49.5828 20.8784V39.0916C49.5828 41.9347 51.8942 44.1558 54.6501 44.1558H68.163C74.2971 44.1558 78.7421 42.8231 81.4092 40.2466C84.0762 37.6701 85.4097 33.9386 85.4097 29.141C85.4097 24.3434 83.8984 20.8784 80.9647 18.835C78.0309 16.7915 73.7637 15.7254 68.0741 15.7254H54.5612C51.8942 15.8142 49.5828 18.0354 49.5828 20.8784Z" fill="white"/>
    <path d="M280.368 26.7422V77.7392C280.368 80.5822 278.057 82.8034 275.301 82.8034C272.456 82.8034 270.234 80.4934 270.234 77.7392V14.5704C270.234 10.4835 273.523 7.28511 277.523 7.28511C279.924 7.28511 282.235 8.52894 283.569 10.5724L319.396 64.0571C320.018 65.0344 321.529 64.5902 321.529 63.4352V12.3493C321.529 9.50624 323.841 7.28511 326.597 7.28511C329.441 7.28511 331.664 9.59508 331.664 12.3493V75.6069C331.664 79.605 328.375 82.8922 324.374 82.8922C321.974 82.8922 319.662 81.6484 318.329 79.6938L282.502 26.1203C281.88 25.143 280.368 25.5872 280.368 26.7422Z" fill="white"/>
    <path d="M213.604 7.10742C211.826 7.10742 210.137 7.19627 208.448 7.4628C202.314 8.26241 196.713 10.5724 191.823 13.9485C191.468 14.215 191.112 14.4816 190.668 14.7481C188.001 16.525 184.711 17.5911 181.155 17.5911C177.688 17.5911 174.399 16.525 171.643 14.7481C171.288 14.4816 170.843 14.215 170.487 13.9485C165.687 10.5724 159.997 8.26241 153.863 7.4628C152.174 7.19627 150.485 7.10742 148.707 7.10742C127.815 7.10742 110.835 24.0768 110.835 44.9554C110.835 65.834 127.815 82.8034 148.707 82.8034C150.485 82.8034 152.174 82.7145 153.863 82.448C159.997 81.6484 165.598 79.3384 170.487 75.9623C170.843 75.6958 171.199 75.4292 171.643 75.1627C174.31 73.3858 177.599 72.3197 181.155 72.3197C184.623 72.3197 187.912 73.3858 190.668 75.1627C191.023 75.4292 191.468 75.6958 191.823 75.9623C196.624 79.3384 202.314 81.6484 208.448 82.448C210.137 82.7145 211.826 82.8034 213.604 82.8034C234.496 82.8034 251.476 65.834 251.476 44.9554C251.476 24.0768 234.496 7.10742 213.604 7.10742ZM232.54 63.8794C227.473 68.9436 220.716 71.6978 213.604 71.6978C208.092 71.6978 202.847 70.0985 198.491 66.989C198.047 66.7224 197.602 66.367 197.158 66.0117C193.068 63.2575 188.267 61.4806 183.111 61.1252C182.489 61.1252 181.956 61.0364 181.333 61.0364C180.711 61.0364 180.089 61.0363 179.555 61.1252C174.31 61.4806 169.509 63.1686 165.509 66.0117C165.064 66.367 164.62 66.6336 164.175 66.989C159.73 70.0097 154.485 71.6978 149.062 71.6978C141.861 71.6978 135.194 68.9436 130.127 63.8794C125.059 58.8152 122.303 52.063 122.303 44.9554C122.303 37.759 125.059 31.0956 130.127 26.0314C135.194 20.9672 141.95 18.213 149.062 18.213C154.574 18.213 159.819 19.8123 164.175 22.9218C164.62 23.1884 165.064 23.5438 165.509 23.8991C169.598 26.6533 174.399 28.4302 179.555 28.7856C180.178 28.7856 180.711 28.8745 181.333 28.8745C181.956 28.8745 182.578 28.8745 183.111 28.7856C188.356 28.4302 193.157 26.7422 197.158 23.8991C197.602 23.5438 198.047 23.2772 198.491 22.9218C202.936 19.9011 208.181 18.213 213.604 18.213C220.805 18.213 227.473 20.9672 232.54 26.0314C237.607 31.0956 240.363 37.8478 240.363 44.9554C240.452 52.063 237.607 58.8152 232.54 63.8794Z" fill="white"/>
</svg>
